<svg width="545" height="426" viewBox="0 0 545 426" fill="none" xmlns="http://www.w3.org/2000/svg">
<g clip-path="url(#clip0_1_2)">
<path d="M43.306 425.02C37.6058 425.11 31.9477 424.031 26.6806 421.85C21.4136 419.668 16.6494 416.431 12.682 412.337C4.56158 404.214 -0.000244141 393.199 -0.000244141 381.714C-0.000244141 370.228 4.56158 359.213 12.682 351.09C16.6494 346.996 21.4136 343.759 26.6806 341.577C31.9477 339.396 37.6058 338.317 43.306 338.407C45.368 338.407 47.4303 338.51 49.493 338.716C52.2066 339.045 54.8941 339.562 57.536 340.263L181.267 216.531C180.566 213.889 180.049 211.202 179.72 208.488C179.514 206.426 179.411 204.364 179.411 202.301C179.41 196.614 180.53 190.982 182.706 185.728C184.882 180.473 188.072 175.699 192.093 171.677C196.115 167.656 200.889 164.466 206.144 162.29C211.398 160.114 217.03 158.994 222.717 158.995C228.404 158.994 234.036 160.114 239.29 162.29C244.545 164.466 249.319 167.656 253.341 171.677C257.362 175.699 260.552 180.473 262.728 185.728C264.904 190.982 266.024 196.614 266.023 202.301C266.023 203.126 265.404 207.869 264.167 216.53L332.22 284.583C334.862 283.882 337.549 283.365 340.263 283.036C342.325 282.83 344.387 282.727 346.45 282.727C348.513 282.727 350.575 282.83 352.637 283.036C355.351 283.365 358.038 283.882 360.68 284.583L459.666 185.597C458.965 182.955 458.448 180.268 458.119 177.554C457.913 175.492 457.81 173.43 457.81 171.367C457.811 164.246 459.568 157.234 462.925 150.954C466.282 144.674 471.137 139.318 477.058 135.362C482.98 131.406 489.786 128.971 496.873 128.273C503.96 127.576 511.11 128.636 517.689 131.362C524.268 134.087 530.074 138.393 534.592 143.898C539.11 149.403 542.2 155.937 543.59 162.921C544.979 169.906 544.625 177.125 542.558 183.94C540.491 190.755 536.775 196.955 531.74 201.991C527.773 206.085 523.008 209.322 517.741 211.504C512.474 213.685 506.816 214.764 501.116 214.674C499.054 214.674 496.992 214.571 494.929 214.365C492.215 214.036 489.528 213.519 486.886 212.818L387.9 311.805C388.601 314.448 389.118 317.136 389.447 319.85C389.653 321.912 389.756 323.974 389.756 326.037C389.756 337.522 385.193 348.538 377.072 356.659C368.951 364.78 357.935 369.343 346.45 369.343C334.965 369.343 323.949 364.78 315.828 356.659C307.707 348.538 303.144 337.522 303.144 326.037C303.144 323.975 303.247 321.913 303.453 319.85C303.782 317.136 304.299 314.448 305 311.805L236.947 243.75C234.305 244.451 231.618 244.968 228.904 245.297C226.842 245.503 224.78 245.606 222.717 245.606C221.892 245.606 217.149 244.987 208.488 243.75L84.756 367.484C85.4574 370.126 85.9743 372.813 86.303 375.527C86.509 377.589 86.612 379.651 86.612 381.714C86.7021 387.414 85.6232 393.072 83.442 398.339C81.2609 403.606 78.0236 408.37 73.93 412.337C69.9626 416.431 65.1984 419.668 59.9314 421.85C54.6644 424.031 49.0062 425.11 43.306 425.02ZM74.239 151.572L61.866 124.35L34.645 111.977L61.866 99.604L74.239 72.383L86.612 99.604L113.833 111.977L86.612 124.35L74.239 151.572ZM346.45 120.02L327.271 79.189L286.44 60.01L327.272 40.832L346.45 0L365.628 40.832L406.46 60.01L365.628 79.189L346.45 120.02Z" fill="white"/>
</g>
<defs>
<clipPath id="clip0_1_2">
<rect width="544.421" height="425.02" fill="white"/>
</clipPath>
</defs>
</svg>
