<svg xmlns="http://www.w3.org/2000/svg" width="544.421" height="425.02" viewBox="0 0 544.421 425.02">
  <path id="logo1" d="M45.306,431.17a41.727,41.727,0,0,1-30.624-12.683,43.314,43.314,0,0,1,0-61.247,41.727,41.727,0,0,1,30.624-12.683q3.093,0,6.187.309a58.987,58.987,0,0,1,8.043,1.547L183.267,222.681a58.984,58.984,0,0,1-1.547-8.043q-.309-3.093-.309-6.187a43.3,43.3,0,0,1,43.306-43.306,43.3,43.3,0,0,1,43.306,43.306q0,1.237-1.856,14.229l68.053,68.053a58.987,58.987,0,0,1,8.043-1.547q3.093-.309,6.187-.309t6.187.309a58.987,58.987,0,0,1,8.043,1.547l98.986-98.986a58.983,58.983,0,0,1-1.547-8.043q-.309-3.093-.309-6.187a43.306,43.306,0,1,1,73.93,30.624,41.727,41.727,0,0,1-30.624,12.683q-3.093,0-6.187-.309a58.983,58.983,0,0,1-8.043-1.547L389.9,317.955A58.982,58.982,0,0,1,391.447,326q.309,3.093.309,6.187a43.306,43.306,0,1,1-86.612,0q0-3.093.309-6.187A58.987,58.987,0,0,1,307,317.955L238.947,249.9a58.984,58.984,0,0,1-8.043,1.547q-3.093.309-6.187.309-1.237,0-14.229-1.856L86.756,373.634a58.986,58.986,0,0,1,1.547,8.043q.309,3.093.309,6.187A41.727,41.727,0,0,1,75.93,418.487,41.727,41.727,0,0,1,45.306,431.17ZM76.239,157.722,63.866,130.5,36.645,118.127l27.221-12.373L76.239,78.533l12.373,27.221,27.221,12.373L88.612,130.5ZM348.45,126.17,329.271,85.339,288.44,66.16l40.832-19.178L348.45,6.15l19.178,40.832L408.46,66.16,367.628,85.339Z" transform="translate(-2 -6.15)" fill="#3b82f6"/>
</svg>
